<?xml version="1.0" encoding="UTF-8" standalone="no"?>
<svg xmlns:dc="http://purl.org/dc/elements/1.1/" xmlns:cc="http://creativecommons.org/ns#" xmlns:rdf="http://www.w3.org/1999/02/22-rdf-syntax-ns#" xmlns:svg="http://www.w3.org/2000/svg" xmlns="http://www.w3.org/2000/svg" id="svg1537" version="1.1" viewBox="0 0 163.83 163.83001">
  <defs id="defs1531"/>
  <metadata id="metadata1534">
    <rdf:RDF>
      <cc:Work rdf:about="">
        <dc:format>image/svg+xml</dc:format>
        <dc:type rdf:resource="http://purl.org/dc/dcmitype/StillImage"/>
        <dc:title/>
        <dc:creator>
          <cc:Agent>
            <dc:title>AsciiSquid</dc:title>
          </cc:Agent>
        </dc:creator>
        <cc:license rdf:resource="http://creativecommons.org/licenses/by/4.0/"/>
      </cc:Work>
      <cc:License rdf:about="http://creativecommons.org/licenses/by/4.0/">
        <cc:permits rdf:resource="http://creativecommons.org/ns#Reproduction"/>
        <cc:permits rdf:resource="http://creativecommons.org/ns#Distribution"/>
        <cc:requires rdf:resource="http://creativecommons.org/ns#Notice"/>
        <cc:requires rdf:resource="http://creativecommons.org/ns#Attribution"/>
        <cc:permits rdf:resource="http://creativecommons.org/ns#DerivativeWorks"/>
      </cc:License>
    </rdf:RDF>
  </metadata>
  <g id="layer1">
    <path transform="scale(0.26458333)" d="m 222.21289,56 -2.82031,54.16797 a 224.75893,224.75893 0 0 0 -34.07227,18.58789 l -1.61133,-27.08594 -1.74609,29.35742 a 224.75893,224.75893 0 0 0 -14.08398,10.55274 l -32.96289,1.7168 29.07617,1.51367 a 224.75893,224.75893 0 0 0 -71.621096,113.5 L 0,262.52148 90.328125,266.64062 A 224.75893,224.75893 0 0 0 84.96875,308.20898 205.06095,205.06095 0 0 1 95.462891,266.875 l 79.154299,3.60938 6.97851,117.36328 c -49.75722,31.59812 -76.69182,57.17803 -72.51562,54.20117 6.37709,-4.54568 44.38425,-20.95979 51.27148,-21.46485 6.88725,-0.50509 34.94564,16.66781 38.26172,20.96094 7.33206,10.51015 6.40435,27.21766 -6.88672,33.83985 -5.86691,2.77791 -64.28125,11.86914 -64.28125,11.86914 0,0 20.15134,19.44612 31.375,25.00195 11.22365,5.55583 43.74943,12.23047 65.03321,12.23047 21.28377,0 81.89535,-4.40337 120.66796,-15.76758 38.77259,-11.36421 72.95313,-43.18359 72.95313,-43.18359 0,0 -2.54998,1.76839 -23.4668,12.375 -20.91677,10.6066 -69.12695,17.67773 -69.12695,17.67773 0,0 46.6095,-11.16196 83.85156,-33.13281 37.24214,-21.97081 60.90039,-54.70117 60.90039,-54.70117 0,0 -15.37049,11.34643 -36.46093,21.82226 -16.16675,8.03014 -37.98047,15.00977 -37.98047,15.00977 0,0 54.8991,-29.23193 74.70507,-53.49219 8.87769,-10.87422 16.80446,-24.95588 22.30079,-35.7832 A 205.06095,205.06095 0 0 1 317.41602,540.6543 224.75893,224.75893 0 0 0 534.34961,316.03125 224.75893,224.75893 0 0 0 309.5918,91.273438 a 224.75893,224.75893 0 0 0 -0.0645,0 224.75893,224.75893 0 0 0 -84.61523,16.562502 z m 65.67969,76.66797 a 205.06095,205.06095 0 0 1 106.32031,29.71875 l -1.41211,27.11719 -59.33398,3.08984 59.33398,3.08984 3.08984,59.33399 3.08985,-59.33399 35.0332,-1.82421 a 205.06095,205.06095 0 0 1 49.82617,83.41992 c -9.34503,10.52672 -19.53873,20.99146 -28.47461,27.8164 -16.33795,12.47845 -39.31175,19.33352 -54.98046,30.38282 -9.48821,6.69093 -18.4297,20.6386 -18.36133,32.46875 1.79403,-4.00543 5.17076,-7.72755 9.4414,-10.40625 9.25641,-5.80551 28.42763,-12.38674 32.58594,-5.88868 4.15752,6.49807 -8.27166,23.61424 -17.52734,29.41993 -3.72148,2.33427 -7.89247,3.7326 -11.85742,3.97461 10.46528,3.52754 27.21667,2.80453 36.45312,-2.32618 17.28215,-12.89215 23.10667,-14.99348 49.70313,-47.77343 3.00525,-3.1279 -31.86426,26.55398 -28.87696,22.70703 13.32295,-17.15721 26.2095,-40.2749 36.75781,-61.45508 a 205.06095,205.06095 0 0 1 4.25,41.53125 205.06095,205.06095 0 0 1 -0.18945,8.77734 c -11.20871,11.76544 -33.36073,33.98161 -50.06445,43.97657 -23.21254,13.88968 -54.88867,20.60937 -54.88867,20.60937 l 1.80468,-9.64258 -28.35351,-33.0625 -11.76563,2.52735 c 0,0 22.46712,-25.24368 30.46289,-33.7754 9.16192,-9.77597 39.02149,-29.55859 39.02149,-29.55859 0,0 -44.40626,17.76089 -56.06641,24.625 -15.20262,8.94951 -36.47265,19.42774 -36.47265,19.42774 0,0 28.99202,-26.94849 62.30859,-47.71289 33.31665,-20.76439 64.35547,-34.97266 64.35547,-34.97266 -22.23508,8.00387 -65.82541,18.84709 -175.03906,67.22656 -35.63075,15.78371 -66.63973,33.01282 -92.08008,48.91797 l 6.8164,-114.60937 174.61719,-7.9629 -174.61719,-7.96093 -5.67578,-95.42383 a 205.06095,205.06095 0 0 1 24.69532,-11.83594 l 6.07031,0.31641 4.32031,82.97656 4.32031,-82.97656 82.97657,-4.32031 -73.9043,-3.84961 a 205.06095,205.06095 0 0 1 52.28711,-6.7793 z m -107.84961,30.6543 -5.42578,91.23828 -75.652346,3.44922 a 205.06095,205.06095 0 0 1 81.078126,-94.6875 z m 217.63672,1.21289 a 205.06095,205.06095 0 0 1 33.65625,26.65429 l -32.35547,-1.68554 z" style="opacity:0.33;fill:#000000;stroke-width:1.00157;stroke-linecap:square;paint-order:markers stroke fill" id="circle1160"/>
  </g>
</svg>